<?xml version="1.0" encoding="UTF-8"?><svg width="48px" height="48px" strokeWidth=".85" viewBox="0 0 24 24" fill="none" xmlns="http://www.w3.org/2000/svg" color="#000000"><path d="M2.695 7.185l9 4 .61-1.37-9-4-.61 1.37zM12.75 21.5v-11h-1.5v11h1.5zm-.445-10.315l9-4-.61-1.37-9 4 .61 1.37z" fill="#000000"></path><path d="M3 17.11V6.89a.6.6 0 01.356-.548l8.4-3.734a.6.6 0 01.488 0l8.4 3.734A.6.6 0 0121 6.89v10.22a.6.6 0 01-.356.548l-8.4 3.734a.6.6 0 01-.488 0l-8.4-3.734A.6.6 0 013 17.11z" stroke="#000000" strokeWidth=".85" strokeLinecap="round" strokeLinejoin="round"></path><path d="M7.5 4.5l8.644 3.842a.6.6 0 01.356.548v3.61" stroke="#000000" strokeWidth=".85" strokeLinecap="round" strokeLinejoin="round"></path></svg>