<?xml version="1.0" encoding="UTF-8"?><svg width="48px" height="48px" strokeWidth=".85" viewBox="0 0 24 24" fill="none" xmlns="http://www.w3.org/2000/svg" color="#000000"><path d="M12 4v4M4 8l2.5 2.5M17.5 10.5L20 8M3 17h3M12 17l1-6M18 17h3M8.5 20.001H4A9.956 9.956 0 012 14C2 8.477 6.477 4 12 4s10 4.477 10 10c0 2.252-.744 4.33-2 6.001L15.5 20" stroke="#000000" strokeWidth=".85" strokeLinecap="round" strokeLinejoin="round"></path><path d="M12 23a3 3 0 100-6 3 3 0 000 6z" stroke="#000000" strokeWidth=".85" strokeLinecap="round" strokeLinejoin="round"></path></svg>